<svg xmlns="http://www.w3.org/2000/svg"  viewBox="0 0 50 50" width="50px" height="50px" baseProfile="basic"><path fill="none" stroke="#000" stroke-linecap="round" stroke-linejoin="round" stroke-miterlimit="10" stroke-width="2" d="M11.01,36.53c0,0.01-0.01,0.01-0.01,0.02"/><path fill="none" stroke="#000" stroke-linejoin="round" stroke-miterlimit="10" stroke-width="2" d="M12.576,13.761	c0.651-2.012,2.134-4.265,3.674-5.681"/><path fill="none" stroke="#000" stroke-linecap="round" stroke-linejoin="round" stroke-miterlimit="10" stroke-width="2" d="M27,43	H11c0,0,0-2.88,0-6.45V25.61c0-2.666,0.169-5.532,0.701-8.251"/><ellipse cx="11.885" cy="14.919" fill="#fafafa" rx="1.009" ry=".68" transform="rotate(-35.653 11.885 14.919)"/><path d="M7.377,19.772C9.292,19.315,16.908,18,16.908,18C17.479,18.333,18,18.73,18,19.565c0,0.777-0.496,1.124-1.092,1.435	c0,0-7.628-0.573-9.547-0.912C6.833,19.995,6.924,19.88,7.377,19.772z"/><path d="M13,13c-1.657,0-3,1.343-3,3s1.343,3,3,3s3-1.343,3-3S14.657,13,13,13z M12.531,15.721	c-0.453,0.325-0.997,0.341-1.216,0.036c-0.219-0.305-0.029-0.815,0.424-1.14s0.997-0.341,1.216-0.036	C13.173,14.886,12.984,15.396,12.531,15.721z"/><path d="M23,13c-1.657,0-3,1.343-3,3s1.343,3,3,3s3-1.343,3-3S24.657,13,23,13z M22.531,15.721	c-0.453,0.325-0.997,0.341-1.216,0.036c-0.219-0.305-0.029-0.815,0.424-1.14s0.997-0.341,1.216-0.036	C23.173,14.886,22.984,15.396,22.531,15.721z"/><path d="M25,4c-3.729,0-6.985,1.153-9.418,3.336c-0.337,0.303-0.429,0.794-0.224,1.197c0.206,0.404,0.653,0.622,1.101,0.524	c2.456-0.522,5.896-0.732,8.339,1.243C26.923,12.021,28,15.122,28,19.52c0,3.048-0.241,5.357-0.642,8.714	c-3.556,4.896-5.169,7.573-5.386,8.93c-0.148,0.931-0.015,1.626,0.41,2.123C22.992,40,23.936,40,24.5,40c0.245,0,0.82,0,1.589-0.116	C26.038,40.989,26,42.254,26,43c0,0.553,0.447,1,1,1h11c0.553,0,1-0.447,1-1V25.54C39,15.127,35.322,4,25,4z"/><path d="M11,36.55V25.61c0-0.312,0.004-0.628,0.009-0.945l-0.719,0.722c-4.468,4.485-4.671,11.032-4.003,13.008	c0.314,0.925,0.949,1.514,1.742,1.615c0.084,0.011,0.167,0.017,0.251,0.017c0.866,0,1.751-0.581,2.72-1.778	C11,37.707,11,37.139,11,36.55z"/></svg>